<svg viewBox="0 0 21 12" fill="none" xmlns="http://www.w3.org/2000/svg">
<path d="M12.375 1.46875C12.375 1.01172 12.7266 0.625 13.2188 0.625H19.4062C19.8633 0.625 20.25 1.01172 20.25 1.46875V7.65625C20.25 8.14844 19.8633 8.5 19.4062 8.5C18.9141 8.5 18.5625 8.14844 18.5625 7.65625V3.50781L11.8125 10.2227C11.4961 10.5742 10.9688 10.5742 10.6523 10.2227L6.75 6.32031L1.40625 11.6289C1.08984 11.9805 0.5625 11.9805 0.246094 11.6289C-0.105469 11.3125 -0.105469 10.7852 0.246094 10.4336L6.15234 4.52734C6.46875 4.21094 6.99609 4.21094 7.3125 4.52734L11.25 8.46484L17.3672 2.3125H13.2188C12.7266 2.3125 12.375 1.96094 12.375 1.46875Z" fill="#6FCF97"/>
</svg>
