<svg viewBox="0 0 14 12" fill="none" xmlns="http://www.w3.org/2000/svg">
<path d="M7 4.71672V10.6667M7 4.71672C7 3.73662 7 3.24657 7.19074 2.87222C7.35852 2.54294 7.62632 2.2752 7.95561 2.10743C8.32995 1.91669 8.81979 1.91669 9.79989 1.91669H11.3166C11.6432 1.91669 11.8067 1.91669 11.9314 1.98027C12.0412 2.03619 12.1306 2.12544 12.1865 2.2352C12.2501 2.35998 12.25 2.52331 12.25 2.85001V7.98334C12.25 8.31004 12.2501 8.47341 12.1865 8.5982C12.1306 8.70796 12.0412 8.79717 11.9314 8.8531C11.8067 8.91668 11.6433 8.91669 11.3166 8.91669H9.66516C9.11729 8.91669 8.84342 8.91669 8.59477 8.9922C8.37463 9.05905 8.16988 9.16866 7.99215 9.31474C7.79139 9.47974 7.63935 9.70768 7.33544 10.1635L7 10.6667M7 4.71672C7 3.73662 6.9999 3.24657 6.80916 2.87222C6.64138 2.54294 6.37388 2.2752 6.0446 2.10743C5.67025 1.91669 5.18015 1.91669 4.20006 1.91669H2.68339C2.35669 1.91669 2.19322 1.91669 2.06844 1.98027C1.95868 2.03619 1.86951 2.12544 1.81358 2.2352C1.75 2.35998 1.75 2.52331 1.75 2.85001V7.98334C1.75 8.31004 1.75 8.47341 1.81358 8.5982C1.86951 8.70796 1.95868 8.79717 2.06844 8.8531C2.19322 8.91668 2.35669 8.91669 2.68339 8.91669H4.33488C4.88275 8.91669 5.15665 8.91669 5.40531 8.9922C5.62544 9.05905 5.8302 9.16866 6.00793 9.31474C6.20869 9.47974 6.36056 9.70767 6.66447 10.1635L7 10.6667" stroke="white" stroke-width="2" stroke-linecap="round" stroke-linejoin="round"/>
</svg>
