<svg viewBox="0 0 22 22" fill="none" xmlns="http://www.w3.org/2000/svg">
<path d="M19.3502 7.92312L18.984 7.71939C18.9271 7.68776 18.8987 7.67188 18.8712 7.65543C18.5981 7.49184 18.3681 7.26542 18.2002 6.99501C18.1833 6.9678 18.1667 6.93968 18.1341 6.88329L18.134 6.88307C18.1014 6.82675 18.0851 6.79843 18.0699 6.77017C17.9193 6.48885 17.8382 6.1756 17.8333 5.8565C17.8329 5.82771 17.8334 5.79826 17.8343 5.74541L17.8346 5.72636L17.8416 5.30936C17.8531 4.62333 17.8588 4.28036 17.7628 3.97281C17.6779 3.70073 17.5359 3.44989 17.3461 3.23721C17.132 2.99723 16.8351 2.82613 16.2426 2.48473L16.2395 2.48296L15.7457 2.1984C15.1529 1.85677 14.8564 1.68602 14.5416 1.62088C14.2632 1.56325 13.9756 1.56556 13.6982 1.62784C13.3854 1.69806 13.0929 1.87322 12.5088 2.22294L12.5043 2.22562L12.1505 2.43748C12.0946 2.47098 12.0662 2.48769 12.0382 2.50328C11.7599 2.658 11.4488 2.74409 11.1305 2.7543C11.0985 2.75533 11.0658 2.75533 11.0006 2.75533H10.9998C10.9349 2.75533 10.9027 2.75533 10.8707 2.7543C10.5518 2.74405 10.2396 2.65757 9.96093 2.50221C9.93386 2.48712 9.90696 2.47097 9.85488 2.4397L9.84887 2.43609L9.49279 2.22232L9.49011 2.22071C8.90254 1.86797 8.60848 1.69143 8.29406 1.62088C8.01549 1.55838 7.72654 1.55628 7.44707 1.61466C7.13117 1.68064 6.83377 1.85322 6.23924 2.19827L5.75158 2.48131C5.16014 2.82457 4.86485 2.99613 4.65148 3.23628C4.46272 3.44874 4.32134 3.699 4.23689 3.97037C4.14143 4.2771 4.14681 4.61903 4.15832 5.30277L4.16546 5.72743C4.16655 5.79173 4.16727 5.82391 4.1668 5.85554C4.16206 6.17528 4.08064 6.48921 3.92953 6.77103C3.91459 6.7989 3.89848 6.82677 3.86633 6.88244C3.83414 6.93816 3.81807 6.96595 3.80139 6.99283C3.63266 7.26468 3.40119 7.49218 3.12638 7.65604C3.0992 7.67225 3.07129 7.68783 3.015 7.71903L2.65344 7.91939L2.65331 7.91946C2.05183 8.25279 1.75114 8.41942 1.53234 8.65681C1.33877 8.86684 1.1922 9.11592 1.10293 9.38724C1.00217 9.69354 1.00295 10.037 1.0045 10.7229L1.00451 10.7256L1.00579 11.2877L1.0058 11.2938C1.00734 11.9729 1.00812 12.3134 1.10894 12.6171C1.19841 12.8866 1.34425 13.1339 1.53674 13.3427C1.75408 13.5784 2.05236 13.7443 2.64807 14.0757L2.65002 14.0768L3.00836 14.2762L3.01333 14.2789C3.07103 14.311 3.10078 14.3276 3.12938 14.3448C3.4017 14.5088 3.63068 14.7354 3.79797 15.0056C3.81604 15.0348 3.83338 15.0651 3.86805 15.1257L3.86808 15.1258C3.90235 15.1856 3.91968 15.2156 3.93553 15.2456C4.0822 15.5232 4.16146 15.8315 4.16681 16.1455C4.16739 16.1795 4.16685 16.214 4.16569 16.283L4.15881 16.6905L4.15878 16.692C4.14722 17.3771 4.14143 17.7198 4.23738 18.0272C4.32232 18.2993 4.46463 18.55 4.65441 18.7627C4.86894 19.0031 5.16585 19.1745 5.76037 19.5171L6.25408 19.8016C6.84693 20.1433 7.14379 20.314 7.45853 20.3791C7.73697 20.4368 8.02443 20.4344 8.30187 20.3721C8.61481 20.3019 8.90743 20.1266 9.49199 19.7766L9.49572 19.7744L9.84955 19.5625C9.90552 19.529 9.93369 19.5123 9.96173 19.4967C10.24 19.342 10.551 19.2559 10.8693 19.2457C10.9013 19.2447 10.9339 19.2447 10.9992 19.2447C11.0646 19.2447 11.0977 19.2447 11.1298 19.2457C11.4488 19.256 11.7605 19.3424 12.0392 19.4977C12.0673 19.5134 12.0954 19.5302 12.1515 19.5639L12.5076 19.7776L12.5082 19.778C13.0971 20.1316 13.3916 20.3084 13.7064 20.379C13.9849 20.4415 14.2734 20.4437 14.5528 20.3854C14.8688 20.3194 15.1663 20.1468 15.7609 19.8017L16.2485 19.5187C16.84 19.1754 17.1353 19.0039 17.3487 18.7637C17.5374 18.5512 17.6789 18.301 17.7633 18.0296C17.8588 17.7229 17.8532 17.381 17.8417 16.6973L17.8346 16.2726L17.8342 16.2511C17.8334 16.2007 17.8329 16.1724 17.8333 16.1446C17.838 15.8248 17.9193 15.5108 18.0704 15.229C18.0854 15.2012 18.1014 15.1733 18.1335 15.1178L18.1336 15.1176C18.1658 15.0619 18.1822 15.034 18.1989 15.0071C18.3676 14.7353 18.5988 14.5079 18.8737 14.344C18.8999 14.3284 18.9273 14.3132 18.9799 14.284L18.9855 14.281L19.347 14.0806C19.9486 13.7472 20.2492 13.5806 20.468 13.3432C20.6615 13.1331 20.8078 12.8841 20.8971 12.6128C20.998 12.3061 20.9976 11.9622 20.996 11.2744L20.9947 10.7123C20.9932 10.0291 20.9924 9.68747 20.8912 9.38284C20.8018 9.11335 20.6558 8.86604 20.4633 8.65728C20.2457 8.42131 19.9472 8.25524 19.3502 7.92312Z" stroke="#DEE4DF" stroke-width="2" stroke-linecap="round" stroke-linejoin="round"/>
</svg>
