<svg  viewBox="0 0 12 14" fill="none" xmlns="http://www.w3.org/2000/svg">
<path d="M1.91663 11.375V3.61664C1.91663 2.96324 1.91663 2.63659 2.04379 2.38702C2.15564 2.1675 2.33399 1.98901 2.55351 1.87716C2.80307 1.75 3.13001 1.75 3.78341 1.75H9.15007C9.47677 1.75 9.64023 1.75 9.76502 1.81358C9.87478 1.86951 9.96356 1.95875 10.0195 2.06851C10.0831 2.19329 10.0833 2.35662 10.0833 2.68332V9.56665C10.0833 9.89335 10.0831 10.0567 10.0195 10.1815C9.96356 10.2913 9.87478 10.3805 9.76502 10.4364C9.64023 10.5 9.47666 10.5 9.14996 10.5H3.22913C2.50425 10.5 1.91663 11.0876 1.91663 11.8125C1.91663 12.0541 2.1125 12.25 2.35413 12.25H8.56663C8.89332 12.25 9.0569 12.25 9.18168 12.1864C9.29144 12.1305 9.38023 12.0413 9.43616 11.9315C9.49974 11.8067 9.49996 11.6434 9.49996 11.3167V10.5" stroke="white" stroke-width="2" stroke-linecap="round" stroke-linejoin="round"/>
</svg>
