<svg viewBox="0 0 20 17" fill="none" xmlns="http://www.w3.org/2000/svg">
<path d="M10 5.80005V16M10 5.80005C10 4.11989 10 3.2798 10.327 2.63806C10.6146 2.07358 11.0737 1.6146 11.6382 1.32698C12.2799 1 13.1196 1 14.7998 1H17.3998C17.9599 1 18.24 1 18.4539 1.10899C18.6421 1.20487 18.7952 1.35786 18.8911 1.54602C19.0001 1.75993 19 2.03992 19 2.59998V11.4C19 11.96 19.0001 12.2401 18.8911 12.454C18.7952 12.6422 18.6421 12.7951 18.4539 12.891C18.24 13 17.96 13 17.4 13H14.5688C13.6296 13 13.1602 13 12.7339 13.1295C12.3565 13.2441 12.0055 13.432 11.7008 13.6824C11.3567 13.9652 11.096 14.356 10.575 15.1375L10 16M10 5.80005C10 4.11989 9.99983 3.2798 9.67285 2.63806C9.38523 2.07358 8.92665 1.6146 8.36217 1.32698C7.72043 1 6.88026 1 5.2001 1H2.6001C2.04005 1 1.75981 1 1.5459 1.10899C1.35774 1.20487 1.20487 1.35786 1.10899 1.54602C1 1.75993 1 2.03992 1 2.59998V11.4C1 11.96 1 12.2401 1.10899 12.454C1.20487 12.6422 1.35774 12.7951 1.5459 12.891C1.75981 13 2.04005 13 2.6001 13H5.43122C6.37043 13 6.83997 13 7.26624 13.1295C7.64361 13.2441 7.99463 13.432 8.29932 13.6824C8.64348 13.9652 8.90382 14.356 9.4248 15.1375L10 16" stroke="#DEE4DF" stroke-width="2" stroke-linecap="round" stroke-linejoin="round"/>
</svg>
