<svg  viewBox="0 0 21 18" fill="none" xmlns="http://www.w3.org/2000/svg">
<path d="M0 1.125C0 0.515625 0.46875 0 1.125 0H19.875C20.4844 0 21 0.515625 21 1.125C21 1.78125 20.4844 2.25 19.875 2.25H1.125C0.46875 2.25 0 1.78125 0 1.125ZM0 8.625C0 8.01562 0.46875 7.5 1.125 7.5H13.875C14.4844 7.5 15 8.01562 15 8.625C15 9.28125 14.4844 9.75 13.875 9.75H1.125C0.46875 9.75 0 9.28125 0 8.625ZM7.875 17.25H1.125C0.46875 17.25 0 16.7812 0 16.125C0 15.5156 0.46875 15 1.125 15H7.875C8.48438 15 9 15.5156 9 16.125C9 16.7812 8.48438 17.25 7.875 17.25Z" fill="#18120F"/>
</svg>
